<svg id="Capa_1" enable-background="new 0 0 512 512" height="512" viewBox="0 0 512 512" width="512" xmlns="http://www.w3.org/2000/svg" xmlns:xlink="http://www.w3.org/1999/xlink"><linearGradient id="SVGID_1_" gradientUnits="userSpaceOnUse" x1="256" x2="256" y1="512" y2="0"><stop offset="0" stop-color="#ffbef9"/><stop offset="1" stop-color="#fff1ff"/></linearGradient><linearGradient id="SVGID_2_" gradientUnits="userSpaceOnUse" x1="256" x2="256" y1="407" y2="105"><stop offset="0" stop-color="#ff81ff"/><stop offset="1" stop-color="#a93aff"/></linearGradient><g><g><circle cx="256" cy="256" fill="url(#SVGID_1_)" r="256"/></g><g><g><path d="m238.235 264.882h-124.353c-4.91 0-8.882 3.973-8.882 8.882v124.353c0 4.91 3.973 8.882 8.882 8.882h124.353c4.91 0 8.882-3.973 8.882-8.882v-124.352c.001-4.91-3.972-8.883-8.882-8.883zm-62.176-159.882c-39.181 0-71.059 31.878-71.059 71.059s31.878 71.059 71.059 71.059 71.059-31.878 71.059-71.059-31.878-71.059-71.059-71.059zm186.529 0h-53.294c-24.487 0-44.412 19.925-44.412 44.412v53.294c0 24.487 19.925 44.412 44.412 44.412h53.294c24.487 0 44.412-19.925 44.412-44.412v-53.294c0-24.487-19.925-44.412-44.412-44.412zm5.387 162.485c-1.665-1.665-3.921-2.602-6.28-2.602h-51.507c-2.359 0-4.615.937-6.28 2.602l-36.423 36.423c-1.665 1.665-2.602 3.921-2.602 6.28v51.507c0 2.359.937 4.615 2.602 6.28l36.423 36.423c1.665 1.665 3.921 2.602 6.28 2.602h51.507c2.359 0 4.615-.937 6.28-2.602l36.423-36.423c1.666-1.665 2.602-3.921 2.602-6.28v-51.507c0-2.359-.937-4.615-2.602-6.28z" fill="url(#SVGID_2_)"/></g></g></g></svg>